# xmcd
#
# Track frame offsets: 
#        150
#        17447
#        34362
#        55892
#        69540
#        88010
#        105035
#        122035
#        138780
#        159392
#        176692
#        198237
#        215837
#        231352
#
# Disc length: 3286 seconds
#
# Revision: 0
# Processed by: cddbd v1.5.2PL0 Copyright (c) Steve Scherf et al.
# Submitted via: ExactAudioCopy v1.0b1
#
DISCID=ba0cd40e
DTITLE=鄧麗君 - 懷念精選專輯DISC3-テレサ・テン No. 3
DYEAR=1900
DGENRE=
TTITLE0=つぐない
TTITLE1=愛人
TTITLE2=長良川艶歌
TTITLE3=晩秋
TTITLE4=Yes, 愛につつまれ
TTITLE5=氷雨
TTITLE6=娘心
TTITLE7=愛の終箸駅吃
TTITLE8=もしかして Part II
TTITLE9=矢切の渡
TTITLE10=片恋酒
TTITLE11=浪花節だよ人生は
TTITLE12=夢芝居
TTITLE13=乱されて
EXTD=
EXTT0=
EXTT1=
EXTT2=
EXTT3=
EXTT4=
EXTT5=
EXTT6=
EXTT7=
EXTT8=
EXTT9=
EXTT10=
EXTT11=
EXTT12=
EXTT13=
PLAYORDER=
